<?xml version="1.0" encoding="utf-8"?>
<!-- Generator: Adobe Illustrator 24.2.1, SVG Export Plug-In . SVG Version: 6.00 Build 0)  -->
<svg version="1.1"
	 id="Layer_1" text-rendering="geometricPrecision" shape-rendering="geometricPrecision" image-rendering="optimizeQuality"
	 xmlns="http://www.w3.org/2000/svg" xmlns:xlink="http://www.w3.org/1999/xlink" x="0px" y="0px" viewBox="0 0 160.9 160.9"
	 style="enable-background:new 0 0 160.9 160.9;" xml:space="preserve">
<style type="text/css">
	.st0{fill:#039BD3;}
</style>
<g>
	<path class="st0" d="M65.4,131.8h6.5v5.1h-6.5V131.8z M98.9,119.8l6.5,0.4v5.3c-2.3,0-4.1-0.4-6.5-0.4V119.8z M82.1,118.9l6.5,0.2
		v5.3l-6.5-0.4V118.9z M48.7,118.5h6.5v5.1h-6.5V118.5z M131.6,109c0.7,0.3,5,0.5,6.3,0.8v6.1l-6.3-0.8V109z M55.3,110.1V105
		c0.9,0,0.8-0.2,1.7-0.2h4.8v5.1H57C56.1,109.9,56.2,110.1,55.3,110.1z M98.9,115.6l-11.2-0.4c-1.4-0.1-3.5-0.2-5-0.4
		c-0.8-0.1-1.8,0-2.7,0c-1,0-1.3-0.2-2.5-0.2V89.4c6.4,0,20,0.1,25.9,1.5c2.8,0.7,4.9,1.4,7.1,3.2c0.4,0.3,0.5,0.3,0.8,0.7
		c2.9,2.7,3.3,6.7,3.3,10.6C114.7,114.6,106.7,115.6,98.9,115.6L98.9,115.6z M55.3,98.1h6.5v5.1h-6.5V98.1z M62,77.8h6.5v5.3H62
		V77.8z M62.7,57.6h6.5v5.1h-6.5V57.6z M131.6,59.7v-6.1c1,0,5.8-0.3,6.3-0.6v6.3C135.8,59.3,133.8,59.7,131.6,59.7z M77.6,71.9
		V46.2h2.9l16.9-0.8c1.5-0.2,6.5,0.2,8,0.7c5.5,1.8,5.9,5.4,5.6,11.7c-0.4,8.5-8.6,12.7-16.4,13.1C93.7,71,93,71,91.9,71.1
		c-3.8,0.3-7.6,0.6-11.4,0.6C79.2,71.7,78.5,71.8,77.6,71.9z M53.4,51h6.5v5.1h-6.5V51z M131.6,43.9v-6.1c2.2,0,4-0.8,6.3-0.8v6.1
		C136.4,43.3,132.9,43.9,131.6,43.9z M57,42.4c0-6.9-0.9-5.2,4.6-5.3c0.9,0,0.9-0.2,1.7-0.2v5.3h-3.4C58.6,42.2,58.2,42.4,57,42.4z
		 M65.8,42h-0.6v-5.1l6.5-0.4v5.3C69.5,41.8,68,42,65.8,42z M90.1,15.2v13.5l-3.6,0.2c-1.9,0.2-9.8,0.3-10.9,0.5V24
		c1.9,0,4.7,0,6.3-0.4v-8l-22.4,1.3c-0.9,0-2.9-0.4-2.9,0.6v12.9H40.5c-0.4,0-0.6,0.1-0.6,0.6v5.9c0,0.4,0.1,0.6,0.6,0.6h6.1v5.1
		h-6.7v6.3c0,0.4,0.1,0.6,0.6,0.6h7.8v21.1c0,0.4,0.1,0.6,0.6,0.6h5.9v5.1h-5.9c-0.4,0-0.6,0.1-0.6,0.6v7.2c0,0.4,0.1,0.6,0.6,0.6
		h5.9v5.1h-5.9c-0.4,0-0.6,0.1-0.6,0.6v21.1h-7.8c-0.4,0-0.6,0.1-0.6,0.6v12.7c0,1.1,2.7,0.4,4.9,0.4h1.5v4.8c0,0.4,0.1,0.6,0.6,0.6
		h9.7v12.9c0,0.8,1.5,0.6,3.8,0.8c1.7,0.1,6.6,0.1,8.8,0.4c0.7,0.1,1.5,0,2.2,0c0.8,0.1,1.2,0.2,2.3,0.2v-5.1c2.4,0,4.1,0.4,6.5,0.4
		v-8.6l4.9,0.4c1.6,0,3.3,0.4,4.9,0.4v14.1c2.2,0,9,1,11.8,1.4l11.4,1.7v-14.5c6.4,0,11.7,1.4,18.9-1.5c5.8-2.3,10.1-6,12-11.9
		c2.1-6.2,2.4-13.7,1-20.2c-0.5-2.5-1.4-5-2.6-7.1l-1.1-1.8c-0.5-0.6-1.2-0.7-2.4-0.7c-2.7,0-4.9-0.2-7.6-0.2v-7.4
		c0,0-4.1-1.6-6.2-2.1c-1.6-0.4-5.2-1.3-7.1-1.3v-4.8c2-0.5,7.5-2.6,9.4-3.5c3-1.5,2-1.1,4-2.5c10-6.9,12.5-19.6,9.3-31.1
		c-0.9-3.3-0.6-1.1-1.5-3.6c-0.9-2.7-5.3-6.1-8.4-7.3c-4.3-1.7-6.8-1.9-11.4-1.9c-1.8,0-4.9,0.1-6.3,0.4v-1.5
		c-2.1,0-4.4,0.8-6.5,0.8V20c0.9,0,2.2-0.3,3.2-0.4c0.9-0.1,2.3-0.3,3.3-0.5v-7.4c-0.6,0-17.9,2.7-22.1,3
		C90.6,14.7,90.1,14.5,90.1,15.2L90.1,15.2z"/>
	<path class="st0" d="M123,1.5v6.8c1.2-0.3,2.4-0.5,3.6-0.8c4.1-1,3.2,1,3.2-7.6C129.2,0,123.5,1.3,123,1.5z M123,159
		c0,0.7,0.7,0.7,1.3,0.8c1.5,0.3,4.4,1.1,5.5,1.1c0-7.6,0.5-6.8-1.4-7.2c-1.8-0.3-3.7-1-5.5-1L123,159L123,159z M114.8,157.9
		l6.7,1.3v-5.5c0-1,0.2-1.2-0.4-1.5l-6.2-1.2L114.8,157.9z M98.3,154.4c0,0.8,1.7,0.8,3.1,1c1.2,0.2,2.6,0.5,3.7,0.5
		c0-7.9,0.9-6.4-3.1-7c-1.3-0.2-2.4-0.4-3.7-0.4V154.4z M114.8,3.2v6.7c1.8-0.2,5-1.1,6.7-1.1v-7C120.4,2.2,115.9,2.7,114.8,3.2z
		 M106.7,4.6v6.7c0.5,0,6-0.9,6.2-1c0.7-0.4,0.4-1.3,0.4-3.3c0-1.2,0-2.4,0-3.6c-1,0.2-2.1,0.4-3.2,0.6
		C109.1,4.2,107.8,4.6,106.7,4.6z M81.8,8v6.3c2.4,0,4.5-0.6,6.8-0.6V7.2L81.8,8z M73.4,9.1c0,6.7-0.4,5.8,1.1,5.7l5.7-0.4V8.2
		c-1.4,0-2.3,0.1-3.6,0.2C74.5,8.5,73.4,8.4,73.4,9.1z M90.1,153.9l6.7,1v-6.7c-0.9,0-6.2-0.6-6.7-0.8V153.9z M65,9.1v6.3l5.1-0.2
		c0.7,0,0.9-0.2,1.7-0.2V8.7c-0.9,0-0.8,0.1-1.5,0.2c-0.6,0-1.3,0-1.9,0C67.3,9,66.4,9.1,65,9.1z M65,151.8c2.3,0,4.6,0.4,6.8,0.4
		v-6.3c-2.2,0-4.6-0.4-6.8-0.4V151.8z M48.3,9.7v3.2c0,3.5-1.3,2.9,6.8,2.9V9.5C52.1,9.5,51.2,9.4,48.3,9.7z M90.1,7v6.5
		c2.1-0.2,4.5-0.8,6.7-0.8V6.1C96.4,6.3,90.9,7,90.1,7z M48.3,145.7v5.1c0,0.4,0.1,0.6,0.6,0.6h6.3v-6.3h-6.3
		C48.4,145.1,48.3,145.2,48.3,145.7L48.3,145.7z M73.4,151.8c0,0.7,0.6,0.6,1.3,0.6c1.4,0,3.3,0.4,5.5,0.4v-6.3
		c-2.4,0-4.3-0.4-6.8-0.4V151.8z M39.9,10.1v5.1c0,0.4,0.1,0.6,0.6,0.6h6.3V9.7c-0.6,0-0.7-0.2-1.3-0.2h-4.9
		C40,9.5,39.9,9.6,39.9,10.1z M123,138.1c0,6.9-0.9,5.4,3.5,6.2c4.2,0.8,3.3,1.9,3.3-5.1c0-0.7-0.8-0.7-1.5-0.8l-3.9-0.7
		C123.6,137.6,123,137.3,123,138.1L123,138.1z M123,17.3v6.1c1.1-0.1,2.4-0.4,3.6-0.6c0.5-0.1,1.3-0.2,1.8-0.3c2-0.3,1.5,0,1.5-6.3
		C128.5,16.2,124.4,17,123,17.3z M131.2,15.8v6.1c1.3,0,2.3-0.3,3.5-0.5c4-0.8,3.2,0.8,3.2-6.9L131.2,15.8z M56.7,151.4l6.8,0.2
		v-6.1c-1,0-1-0.2-2.1-0.2h-4.8L56.7,151.4L56.7,151.4z M131.2,8.6c0,6.1-0.4,5.9,1.3,5.5l5.3-1.1V6.7c-1,0-3.9,0.8-5.2,1.1
		C132,7.9,131.2,7.9,131.2,8.6z M131.2,144.7c0,0.8,1.5,0.7,3.1,1.1c1,0.2,2.6,0.6,3.5,0.6v-6.3c-1.2-0.3-5.6-1.1-6.7-1.1v5.7H131.2
		z M114.8,149.7c0.9,0.1,2.4,0.4,3.3,0.6c1,0.2,2.4,0.6,3.4,0.6v-6.1c-1.6,0-4.5-1-6.7-1L114.8,149.7z M114.8,142.3l6.7,1.1v-6.1
		c-1.8-0.1-5.1-1-6.7-1V142.3z M114.8,11.2v5.9c2.4,0,5.2-0.9,6.7-1V10C119.8,10.2,116.5,11.2,114.8,11.2z M114.8,18.6v5.9l6.7-1
		v-6.1L114.8,18.6z M39.9,78.2v4.6c0,0.4,0.1,0.6,0.6,0.6h6.3v-5.5c-0.6,0-0.7-0.2-1.3-0.2h-4.9C40,77.6,39.9,77.7,39.9,78.2z
		 M81.8,145.3c0.9,0.2,2.6,0.3,3.6,0.4c4,0.2,3.2,2,3.2-5.3c-1.6,0-4-0.6-6.8-0.6L81.8,145.3z M15,69.4c1.1,0,1.3,0.2,2.5,0.2h4.4
		v-5.1c0-0.4-0.1-0.6-0.6-0.6H15V69.4z M15,91.5V97h6.3c0.4,0,0.6-0.1,0.6-0.6c0-5.5,0.4-5.2-1.3-5.2L15,91.5z M81.8,138.5
		c2.2,0,4.7,0.6,6.8,0.6v-5.7c-2.4,0-4.3-0.4-6.8-0.4V138.5z M15,34.6c0,1,1.4,0.4,3.2,0.6c1.1,0.1,2.3,0.1,3.7,0.1v-5.5
		c-2.3,0-4.6-0.4-6.8-0.4v5.2L15,34.6z M15.6,98.3H15v5.5h6.3c0.4,0,0.6-0.1,0.6-0.6v-5.1C19.5,98.1,17.9,98.3,15.6,98.3z M15,55.7
		l6.8,0.2v-5.5c-1.3,0-1.9-0.2-3.2-0.2H15V55.7z M31.5,51.2c0,5.9-0.8,5,3.2,4.9c1.5,0,2.4,0.2,3.6,0.2v-5.5c-0.6,0-0.7-0.2-1.3-0.2
		h-4.9C31.7,50.6,31.5,50.7,31.5,51.2z M15,125.9v5.5l6.8-0.4v-5.5C19.5,125.5,17.2,125.7,15,125.9L15,125.9z M15,43.7v5.1
		c2.5,0,4.3,0.2,6.8,0.2v-5.5l-5.5-0.2C15.7,43.3,15,42.9,15,43.7z M15,132.7v5.5c2.4,0,4.6-0.4,6.8-0.4v-5.5l-5.1,0.2
		C16,132.6,15.9,132.7,15,132.7z M31.5,64.7v4.9h3.6c1.4,0,1.9,0.2,3.2,0.2v-5.7H32C31.7,64.1,31.5,64.2,31.5,64.7z M31.5,139.2
		c0,6.8-1.4,4.8,6.8,4.8v-5.5l-5.5,0.2C32.2,138.6,31.5,138.5,31.5,139.2z M23.4,78.2v5.1H30v-5.7h-6.1
		C23.5,77.6,23.4,77.7,23.4,78.2z M31.5,30.8v4.9c1.2,0,1.6,0.2,2.9,0.2h4v-5.5c-1.5,0-3.6,0.1-5-0.1C32.6,30.2,31.5,30,31.5,30.8z
		 M31.5,44.3v4.6c0,0.4,0.1,0.6,0.6,0.6h6.3V44h-4.9C32.5,43.9,31.5,43.3,31.5,44.3z M39.9,24.3c0,2.8-0.4,4.9,0.6,4.9h6.3v-5.5
		h-6.3C40,23.8,39.9,23.9,39.9,24.3z M39.9,85c0,2.8-0.4,4.9,0.6,4.9h6.3v-5.5h-6.3C40,84.4,39.9,84.6,39.9,85z M39.9,98.5
		c0,2.8-0.4,4.9,0.6,4.9h6.3v-5.5h-6.3C40,97.9,39.9,98.1,39.9,98.5z M48.3,24.3c0,2.8-0.4,4.9,0.6,4.9h6.3v-5.5h-6.3
		C48.4,23.8,48.3,23.9,48.3,24.3z M31.5,91.9c0,2.8-0.4,4.9,0.6,4.9h6.3v-5.5h-6.3C31.7,91.3,31.5,91.4,31.5,91.9z M31.5,105.4
		c0,2.8-0.4,4.9,0.6,4.9h6.3v-5.5h-6.3C31.7,104.8,31.5,104.9,31.5,105.4z M39.9,58c0,2.8-0.4,4.9,0.6,4.9h6.3v-5.5h-6.3
		C40,57.4,39.9,57.6,39.9,58z M39.9,71.5c0,2.8-0.4,4.9,0.6,4.9h6.3v-5.5h-6.3C40,70.9,39.9,71.1,39.9,71.5z M48.3,132.2
		c0,2.8-0.4,4.9,0.6,4.9h6.3v-5.5h-6.3C48.4,131.6,48.3,131.7,48.3,132.2z M31.5,71.5c0,2.8-0.4,4.9,0.6,4.9h6.3v-5.5h-6.3
		C31.7,70.9,31.5,71.1,31.5,71.5z M31.5,125.7c0,5.3-0.4,5,1.3,5l5.5-0.2V125l-4.4,0.1C33,125.2,31.5,124.8,31.5,125.7z M31.5,132.4
		c0,6.4-0.2,4.9,1.1,4.9h5.7v-5.5H32C31.7,131.8,31.5,131.9,31.5,132.4z M39.9,104.8c0,7.1-0.4,5.3,1.9,5.3h4.9v-5.5h-4.4
		C41.2,104.6,41,104.8,39.9,104.8z M39.9,55.7c0,0.4,0.1,0.6,0.6,0.6h6.3v-5.5H40L39.9,55.7L39.9,55.7z M31.5,85v5h6.8v-5.5H32
		C31.7,84.4,31.5,84.6,31.5,85z M39.9,132.2v4.9h6.8v-5.5h-6.3C40,131.6,39.9,131.7,39.9,132.2z M31.5,118.9v4.9h6.8v-5.5H32
		C31.7,118.3,31.5,118.4,31.5,118.9z M50,17.1h-1.7V22c0,0.7,0.4,0.6,1.3,0.6c2.1,0,3.4-0.2,5.5-0.2v-5.5C53.2,16.9,52,17.1,50,17.1
		z M48.3,143.8c1,0,1,0.2,2.1,0.2h4.8v-5.5h-6.8L48.3,143.8L48.3,143.8z M23.4,37.3c0,5.2-0.4,5.1,1.1,5.2l5.5,0.2v-5.5
		c-1.8-0.4-3.9,0-5.5-0.3C24.1,36.8,23.4,36.4,23.4,37.3z M23.4,118.7v5.5L30,124v-5.5C28.8,118.5,24.3,118.3,23.4,118.7z
		 M23.4,62.8H26c1.6,0,2.4,0.2,4,0.2v-5.7h-6.6V62.8z M23.4,105v5.5h3.8c1.3,0,1.6-0.2,2.9-0.2v-5.5C27.6,104.8,25.8,105,23.4,105z
		 M23.4,111.8v5.5c2.4,0,4.2-0.2,6.7-0.2v-5.5h-3.4C25.2,111.6,24.7,111.8,23.4,111.8z M23.4,35.6c2.5,0,4.2,0.2,6.7,0.2v-5.5
		c-1.7,0-2.6-0.2-4.4-0.2h-2.3V35.6z M23.4,132.2v5.5h1.1c2.1,0,3.4-0.2,5.5-0.2V132C27.6,132,25.8,132.2,23.4,132.2z M23.4,103.7
		H30v-5.5h-6.6V103.7z M23.4,96.8H30v-5.5h-6.6V96.8z M23.4,69.6H30v-5.5h-6.6V69.6z"/>
</g>
</svg>
