<?xml version="1.0" encoding="utf-8"?>
<!-- Generator: Adobe Illustrator 24.2.1, SVG Export Plug-In . SVG Version: 6.00 Build 0)  -->
<svg version="1.1"
	 id="Layer_1" text-rendering="geometricPrecision" shape-rendering="geometricPrecision" image-rendering="optimizeQuality"
	 xmlns="http://www.w3.org/2000/svg" xmlns:xlink="http://www.w3.org/1999/xlink" x="0px" y="0px" viewBox="0 0 1518 1518"
	 style="enable-background:new 0 0 1518 1518;" xml:space="preserve">
<style type="text/css">
	.st0{fill:#2AC64B;}
	.st1{fill:#008A5A;}
	.st2{fill:#009550;}
	.st3{fill:#00983E;}
	.st4{fill:#009A37;}
	.st5{fill:#00863F;}
	.st6{fill:#06CBF6;}
	.st7{fill:url(#SVGID_1_);}
	.st8{fill:#666565;}
	.st9{fill:#1E120D;}
	.st10{fill-rule:evenodd;clip-rule:evenodd;fill:url(#SVGID_2_);}
	.st11{fill-rule:evenodd;clip-rule:evenodd;fill:url(#SVGID_3_);}
	.st12{fill-rule:evenodd;clip-rule:evenodd;fill:url(#SVGID_4_);}
	.st13{fill-rule:evenodd;clip-rule:evenodd;fill:#97CC1A;}
	.st14{fill-rule:evenodd;clip-rule:evenodd;fill:url(#SVGID_5_);}
	.st15{fill-rule:evenodd;clip-rule:evenodd;fill:url(#SVGID_6_);}
	.st16{fill-rule:evenodd;clip-rule:evenodd;fill:url(#SVGID_7_);}
	.st17{fill-rule:evenodd;clip-rule:evenodd;fill:url(#SVGID_8_);}
	.st18{fill-rule:evenodd;clip-rule:evenodd;fill:url(#SVGID_9_);}
	.st19{fill-rule:evenodd;clip-rule:evenodd;fill:url(#SVGID_10_);}
</style>
<g>
	<path class="st0" d="M410.5,359.9c-13-5.9-24.3-10.5-33.5-14c-1.9-14.5-3.3-29-4.2-43.5c-0.7-12-0.3-23.8,1.2-35.4
		c7.8,1.3,18.9,3.2,32.7,5.9c-1.4,16.5-1.5,33.8,0,52.1C407.6,336.7,408.9,348.3,410.5,359.9z M539.3,435.9
		c-32.9-24.2-63.9-42.9-90.7-57.3c-5.4-33.5-7.8-66.7-5.7-98.2c24.9,5.5,54.2,12.6,86.5,21.6C527.3,344.2,531.2,389.6,539.3,435.9
		L539.3,435.9z M877.6,453.5c-0.3,3.7-0.7,7.3-1.1,11c-45,23.5-89.8,55.2-130,97.9c-13,13.8-24.9,27.7-35.7,41.5
		c-12.2-15.4-25.2-31-39-46.7c-6.2-7-12.4-13.8-18.6-20.4c-10.3-69.3-16.9-137.6-18.1-201.7C715,363.5,801.5,402.1,877.6,453.5
		L877.6,453.5z"/>
	<path class="st1" d="M420.4,205.5c-6.7,20.4-11.6,42.9-13.7,67.3c-13.8-2.7-24.9-4.6-32.7-5.9c0.9-7.3,2.2-14.5,3.8-21.7
		C387.6,234.7,401.8,220.8,420.4,205.5z"/>
	<path class="st2" d="M577.1,117.2c-23.7,43.4-42.7,102-47.5,180.1c-0.1,1.5-0.2,3.1-0.2,4.6c-32.3-9-61.7-16.1-86.5-21.5
		c0-1.1,0.1-2.1,0.2-3.1c3.1-41,15.2-78.5,33.5-111.9C504.8,147.9,538.3,131,577.1,117.2z"/>
	<path class="st3" d="M877.6,453.5c-76.1-51.4-162.5-90-242.6-118.4c-1.5-76.3,4.4-146.5,20.2-204.6c0.4-1.6,0.9-3.2,1.3-4.7
		c63.5,37.5,146.3,79.4,224.8,97.8C888.1,292.8,886.1,371.5,877.6,453.5L877.6,453.5z"/>
	<path class="st4" d="M1147.2,302.4c-1.9,32.2-6.5,64.1-13.7,96c-9.1,0.3-19.5,0.9-31.1,1.9c5.1-24.6,8.8-49.7,10.9-75.4
		c6.9-86.2-21-151.9-53.2-197.8c9.5,2.7,18.4,5.3,26.8,7.9C1123.1,181,1151.1,239.9,1147.2,302.4z M1066.7,404.5
		c-25.2,3.6-53.7,9.3-83.8,17.8c6.9-43.3,9.9-85.6,7.5-125c-5.5-90-29.8-153.9-58.5-198.8c26.9,4.4,52.5,9.7,76.1,15.2
		c37.6,44.4,64.2,99.8,69,163.6C1080,317.9,1075.7,361.2,1066.7,404.5z"/>
	<path class="st5" d="M881.3,223.5c-78.6-18.4-161.3-60.2-224.8-97.8c3.3-11.6,7.1-22.2,11.2-31.8c11.6-2,23.6-3.6,35.9-4.9
		c49.6-5.1,99.2-4.6,146.4-0.7c5.6,12.3,10.7,26.3,15,42.1C872.6,158.8,878,190.1,881.3,223.5z"/>
	<path class="st6" d="M542.1,46.5c-2.6,1.6-87,53.6-121.7,159c-18.5,15.2-32.7,29.2-42.5,39.8C400.8,145.8,492.4,64.5,542.1,46.5z
		 M595.5,87.5c-6.3,9-12.5,18.9-18.4,29.7c-38.8,13.7-72.3,30.7-100.6,48.2c21.6-39.7,52-73.5,86.3-100.3
		C570.9,70.9,582,78.6,595.5,87.5L595.5,87.5z"/>
	
		<linearGradient id="SVGID_1_" gradientUnits="userSpaceOnUse" x1="-34864.4961" y1="15926.9297" x2="-33007.375" y2="15870.6494" gradientTransform="matrix(0.253 0 0 -0.253 9406.915 4085.9392)">
		<stop  offset="0" style="stop-color:#0288F7"/>
		<stop  offset="1" style="stop-color:#2EE2BD"/>
	</linearGradient>
	<path class="st7" d="M1086.9,135.1c-8.4-2.6-17.3-5.2-26.8-7.9c-38.1-54.2-82.3-80.7-82.3-80.7C1007.2,57,1051.1,89.7,1086.9,135.1
		z M1008,113.7c-23.6-5.5-49.1-10.8-76.1-15.2C883.6,22.6,822.9,1,819.9,0C885,13.1,956.7,53.2,1008,113.7z M850,88.4
		c-47.2-3.9-96.7-4.4-146.4,0.7c-12.3,1.2-24.3,2.9-36,4.9C702.5,11.8,759.2,0,759.2,0h1.6C760.8,0,815,11.2,850,88.4z M700.2,0
		c-2.8,1-57.7,20.5-104.7,87.5c-13.4-8.9-24.6-16.6-32.7-22.4C605.6,31.7,654.5,9.2,700.2,0L700.2,0z"/>
	<path class="st8" d="M760,1066.4h58.3l21.6-94.1H680.2l21.6,94.1H760z"/>
	<g>
		<path class="st9" d="M1369.5,1207.2h3.6c1.7,0,2.9-0.3,3.6-0.8c0.6-0.5,0.9-1.2,0.9-2.1c0-0.5-0.1-1-0.5-1.5
			c-0.3-0.4-0.7-0.8-1.3-1c-0.5-0.2-1.5-0.3-3-0.3h-3.4L1369.5,1207.2z M1366.5,1217.6v-18.5h6.4c2.2,0,3.7,0.2,4.7,0.5
			c1,0.3,1.8,0.9,2.3,1.8c0.6,0.9,0.9,1.8,0.9,2.7c0,1.4-0.5,2.5-1.4,3.5c-1,1-2.2,1.6-3.8,1.7c0.7,0.3,1.2,0.6,1.6,1
			c0.7,0.7,1.6,1.9,2.7,3.7l2.3,3.6h-3.6l-1.6-2.9c-1.3-2.3-2.3-3.7-3.1-4.3c-0.6-0.4-1.4-0.6-2.4-0.6h-1.8v7.9L1366.5,1217.6z
			 M1374,1193.8c-2.4,0-4.8,0.6-7.1,1.9c-2.3,1.2-4.1,3-5.4,5.3c-1.3,2.3-1.9,4.7-1.9,7.2c0,2.5,0.6,4.9,1.9,7.1
			c1.3,2.3,3,4,5.3,5.3c2.3,1.3,4.7,1.9,7.1,1.9c2.5,0,4.9-0.6,7.1-1.9c2.3-1.3,4.1-3,5.3-5.3c1.3-2.3,1.9-4.6,1.9-7.1
			c0-2.5-0.6-4.9-1.9-7.2c-1.3-2.3-3.1-4.1-5.4-5.3C1378.8,1194.4,1376.4,1193.8,1374,1193.8L1374,1193.8z M1374,1190.9
			c2.9,0,5.7,0.7,8.5,2.2c2.7,1.5,4.9,3.6,6.4,6.4c1.5,2.8,2.3,5.6,2.3,8.6c0,3-0.8,5.8-2.3,8.6c-1.5,2.7-3.6,4.9-6.4,6.4
			c-2.7,1.5-5.6,2.3-8.6,2.3c-3,0-5.8-0.8-8.6-2.3c-2.7-1.5-4.9-3.6-6.4-6.4c-1.5-2.7-2.3-5.6-2.3-8.6c0-3,0.8-5.9,2.3-8.6
			c1.5-2.8,3.7-4.9,6.4-6.4C1368.3,1191.7,1371.1,1190.9,1374,1190.9L1374,1190.9z M1172.9,1365.9l37,1.5l30.1-136.9l31.3,136.9
			h37.6l33.5-174.5h-28.6l-22.1,143.6h-5.2l-32.3-143.6H1228l-31.8,143.6h-4.1l-23.6-143.6h-30.9L1172.9,1365.9z M1100,1296.8
			l-22.1-81h-6.1l-21.6,81H1100z M1106.1,1319h-61.8l-12.9,48.4h-30.6l56.8-174.5h35.5l57.7,174.5h-31.5L1106.1,1319z M892.1,1275
			h37c15.9,0,28.8-12.9,28.8-28.8v-1.5c0-15.9-12.9-28.8-28.8-28.8h-37V1275z M957.9,1367.3l-40.1-70.5h-25.7v70.5h-30.9v-174.5
			h73.3c28.2,0,51.1,22.9,51.1,51.1v1.7c0,23-15.2,42.5-36.1,48.9l41.4,72.7H957.9z M809.6,1272.8v14.6c0,31.5-25.5,56.9-56.9,56.9
			h-17.6v-128.5h17.6C784.2,1215.8,809.6,1241.3,809.6,1272.8z M760.2,1192.8h-54v174.5h54c42.7,0,77.3-34.6,77.3-77.3v-19.8
			C837.6,1227.5,803,1192.8,760.2,1192.8z M679.1,1346.1H675c-4,0-7.3-3.3-7.3-7.3v-145.7h-30.6v144.8c0,45.7,44.9,30.6,44.9,30.6
			L679.1,1346.1z M589.1,1289.6h-61.5c0,0,5.5-35,30.7-35C583.6,1254.6,589.1,1277,589.1,1289.6z M500.6,1301.9
			c0,46.8,29.7,63.1,54.5,68c24.8,5,54.2-12.8,54.2-12.8s-5.8-10.5-11.4-17.8c-3.5,2.3-24.8,17.2-46.6,6.7
			c-21.8-10.5-24.2-37-24.2-37H613c5.5-58.5-25.6-76-52.4-76C535.2,1233,500.6,1255.2,500.6,1301.9L500.6,1301.9z M492.1,1259.5
			c0,0,2.3-9.6,5.5-24.2c-28.8-13.7-55.6,27.7-55.6,27.7v-27.7h-24.5v131.4h28v-80.1C466.5,1249.9,492.1,1259.5,492.1,1259.5
			L492.1,1259.5z M371.2,1301.5c0,25.3-15.3,45.9-34.1,45.9c-18.8,0-34.1-20.5-34.1-45.9s15.3-45.9,34.1-45.9
			C355.9,1255.6,371.2,1276.2,371.2,1301.5z M336.2,1233c-34.3,0-62,30.6-62,68.5s27.8,68.5,62,68.5c34.3,0,62-30.6,62-68.5
			S370.5,1233,336.2,1233z M263.6,1345.6c-14.5,16.1-34.3,26.1-56.2,26.1c-44.5,0-80.5-41.1-80.5-91.8c0-50.7,36.1-91.8,80.5-91.8
			c19.8,0,37.8,8.1,51.9,21.6l-16.1,20.5c-9.2-9.9-21-15.9-34-15.9c-28.9,0-52.3,29.3-52.3,65.5c0,36.2,23.4,65.5,52.3,65.5
			c14.1,0,26.9-7.1,36.3-18.5L263.6,1345.6z"/>
		<path class="st9" d="M182.2,1460.4c0-35.9,20.5-57.8,48.6-57.8c14.7,0,24.3,7,30.5,13.7l-7.4,9.2c-5.4-5.8-12.2-10.5-22.8-10.5
			c-21.3,0-35,17.2-35,45c0,28,12.6,45.5,35.2,45.5c7.6,0,14.9-2.4,19.1-6.5v-29H228v-11.7h34.7v46.8c-6.7,7.3-18.1,12.8-32,12.9
			h-1.1C201.9,1517.8,182.2,1496.4,182.2,1460.4L182.2,1460.4z M318.4,1465l10.6-7.3l32.3,58.3H346L318.4,1465z M319.1,1457.4
			c16.5,0,25.5-7,25.5-21.4c0-14.6-9.1-19.9-25.5-19.9h-17.8v41.3L319.1,1457.4z M287.9,1404.6h33.2c21.6,0,37,8.1,37,31.3
			c0,22.2-15.5,32.9-37,32.9h-19.7v47.1h-13.5L287.9,1404.6z M383.9,1470.7h48.7v11.3h-48.7V1470.7z M400.8,1404.6H416l35.8,111.4
			h-14.3l-18.5-62.2c-3.8-12.4-7.2-24.7-10.6-37.5h-0.6c-3.3,12.9-6.7,25.1-10.5,37.5l-18.7,62.2H365L400.8,1404.6z M495.4,1460.3
			c18.5,0,27.3-7.1,27.3-22.9c0-16.1-9.4-21.3-28-21.3h-15.1v44.2H495.4z M466.2,1404.6h30.2c23.7,0,39.7,8.4,39.7,32.8
			c0,23.4-15.9,34.4-39.1,34.4h-17.4v44.2h-13.5L466.2,1404.6z M557.5,1404.6H571v46.6h49.2v-46.6h13.5V1516h-13.5v-52.4H571v52.4
			h-13.5V1404.6z M662.7,1404.6h13.5V1516h-13.5V1404.6z M698.9,1460.4c0-35.9,20.1-57.8,47-57.8c12.8,0,22.9,6.6,29.1,13.7
			l-7.4,9.2c-5.6-6.2-12.6-10.5-21.5-10.5c-20,0-33.3,17.2-33.3,45c0,28,12.7,45.5,32.8,45.5c10.1,0,17.8-4.6,24.5-12.5l7.4,8.9
			c-8.2,10-18.4,15.9-31.8,16.1h-1.1C718.5,1517.8,698.9,1496.4,698.9,1460.4z M785.6,1501.5l8.1-9.7c7.6,8.3,18.2,13.8,29.2,13.8
			c13.9,0,22.1-7.3,22.1-18.1c0-11.4-7.7-15-17.7-19.6l-15.2-7.1c-9.9-4.4-21.4-12.3-21.4-28.7c0-17,14.1-29.6,33.3-29.6
			c12.5,0,23.7,5.7,31.2,13.8l-7.1,9.1c-6.5-6.4-14.3-10.4-24-10.4c-11.9,0-19.7,6.3-19.7,16.3c0,10.7,9.2,14.7,17.5,18.4l15.1,6.9
			c12.2,5.5,21.8,13.2,21.8,29.8c0,17.5-13.7,31.5-35.8,31.6h-0.6C807.6,1517.9,794.8,1511.5,785.6,1501.5L785.6,1501.5z
			 M904.1,1501.5l8.1-9.7c7.6,8.3,18.2,13.8,29.2,13.8c13.9,0,22.1-7.3,22.1-18.1c0-11.4-7.7-15-17.7-19.6l-15.2-7.1
			c-9.9-4.4-21.4-12.3-21.4-28.7c0-17,14.1-29.6,33.3-29.6c12.5,0,23.7,5.7,31.2,13.8l-7.1,9.1c-6.5-6.4-14.3-10.4-24-10.4
			c-11.9,0-19.7,6.3-19.7,16.3c0,10.7,9.2,14.7,17.5,18.4l15.1,6.9c12.2,5.5,21.8,13.2,21.8,29.8c0,17.5-13.7,31.5-35.8,31.6h-0.6
			C926,1517.9,913.2,1511.5,904.1,1501.5L904.1,1501.5z M997.4,1470v-65.4h13.5v65.8c0,26.8,10.8,35.2,24.6,35.2
			c14,0,25.1-8.4,25.1-35.2v-65.8h12.9v65.4c0,35.7-16.4,48-38,48C1013.9,1518,997.4,1505.7,997.4,1470z M1101.9,1404.6h13.5V1516
			h-13.5V1404.6z M1166.4,1416.6h-32v-12h77.5v12h-32v99.4h-13.5L1166.4,1416.6z M1230.8,1404.6h61v12h-47.5v34.9h40.1v12h-40.1
			v40.5h49.2v12h-62.6V1404.6z"/>
	</g>
</g>
<linearGradient id="SVGID_2_" gradientUnits="userSpaceOnUse" x1="-34722.3789" y1="13189.5273" x2="-35179.1992" y2="14319.1973" gradientTransform="matrix(0.253 0 0 -0.253 9406.915 4085.9392)">
	<stop  offset="0" style="stop-color:#CB1918"/>
	<stop  offset="0.388" style="stop-color:#A2183D"/>
	<stop  offset="0.749" style="stop-color:#902869"/>
	<stop  offset="1" style="stop-color:#73358A"/>
</linearGradient>
<path class="st10" d="M539.9,645.2c11.2,23.2,21.9,43.9,31.1,61.1c15.8,29.6,30.8,54.7,46.3,77.6c4.5-15.7,10.1-32.2,17-49.3
	c-12-27.6-24.1-57.2-35.5-88c-24.9-67-47.1-139.9-59.5-210.7c-32.9-24.2-63.9-42.9-90.8-57.2C464,473.9,504.5,572.1,539.9,645.2
	L539.9,645.2z"/>
<linearGradient id="SVGID_3_" gradientUnits="userSpaceOnUse" x1="-34953.2031" y1="13096.1768" x2="-35410.0313" y2="14225.8564" gradientTransform="matrix(0.253 0 0 -0.253 9406.915 4085.9392)">
	<stop  offset="0" style="stop-color:#CB1918"/>
	<stop  offset="0.388" style="stop-color:#A2183D"/>
	<stop  offset="0.749" style="stop-color:#902869"/>
	<stop  offset="1" style="stop-color:#73358A"/>
</linearGradient>
<path class="st11" d="M487.2,644c6.3,11.1,12.9,22.2,19.8,33.5c32,52.5,69,100.9,101.9,140.3c1-4.8,2.1-9.7,3.4-14.7
	c-13.3-18.3-26.3-36.9-37.5-54.1c-16-24.7-39.2-60.4-63.4-104.4c-41.4-75.5-85.6-175.2-100.9-284.7c-13-5.9-24.3-10.5-33.5-14
	C390.3,444.1,427.8,540.6,487.2,644L487.2,644z"/>
<linearGradient id="SVGID_4_" gradientUnits="userSpaceOnUse" x1="-34318.9805" y1="13352.6523" x2="-34775.8125" y2="14482.333" gradientTransform="matrix(0.253 0 0 -0.253 9406.915 4085.9392)">
	<stop  offset="0" style="stop-color:#CB1918"/>
	<stop  offset="0.388" style="stop-color:#A2183D"/>
	<stop  offset="0.749" style="stop-color:#902869"/>
	<stop  offset="1" style="stop-color:#73358A"/>
</linearGradient>
<path class="st12" d="M658.9,573.4c4.2,24.8,9,50,14.3,74.9c0.5,2.4,1,4.7,1.5,7.1c10.5-17,22.4-34.2,36-51.5
	c-12.6-15.9-25.6-31.5-39-46.7c-6.2-7-12.4-13.8-18.6-20.4C654.9,549,656.8,561.1,658.9,573.4L658.9,573.4z"/>
<path class="st13" d="M1102.5,400.3c-14.8,72-40.9,138.7-68.7,195.7c5.6,5.6,11.1,11.3,16.4,16.8c39.6-73.6,67.7-143.9,83.4-214.5
	C1124.5,398.8,1114.1,399.3,1102.5,400.3z M983,422.4c-5.4,34.4-13.3,69.4-22.7,104.1c16.4,14.8,34.3,31.3,51.8,48.3
	c22-52.5,42.6-111.4,54.7-170.2C1041.5,408.1,1013,413.8,983,422.4L983,422.4z"/>
<linearGradient id="SVGID_5_" gradientUnits="userSpaceOnUse" x1="-33380.168" y1="13992.0869" x2="-34043.0977" y2="13267.9668" gradientTransform="matrix(0.253 0 0 -0.253 9406.915 4085.9392)">
	<stop  offset="0" style="stop-color:#ADD816"/>
	<stop  offset="1" style="stop-color:#DBD704"/>
</linearGradient>
<path class="st14" d="M746.4,562.4c-13,13.8-24.9,27.7-35.7,41.5c47.3,59.8,82.5,116.7,108,164.2c9.3-35.8,18.9-75.4,27.5-115.9
	c5.6-26.2,10.7-52.7,15.1-78.8c6.2-36.5,11.3-72.9,15.2-108.8C831.4,488.1,786.7,519.7,746.4,562.4z M1033.8,596
	c-1.1,2.2-2.1,4.4-3.2,6.5c-31.4,63.4-64.4,114.3-85.3,146.4c-24.1,37.1-56.5,80.5-82.2,113.8c0.9,2.5,1.8,4.7,2.7,6.9
	c39.8-43.4,99.2-113.3,147.3-192.2c12.1-19.8,23.4-39.3,33.9-58.6c1.1-2,2.2-4,3.3-6C1044.9,607.3,1039.4,601.7,1033.8,596
	L1033.8,596z M960.2,526.4L959,531c-30.5,110.2-77,216.9-113.7,290.5c4,8.7,7.6,16.9,10.8,24.3c34-40.4,61.9-81.3,93-139.4
	c17.1-32,39.2-75.5,60.2-125.1l2.8-6.6C994.5,557.7,976.6,541.2,960.2,526.4L960.2,526.4z"/>
<linearGradient id="SVGID_6_" gradientUnits="userSpaceOnUse" x1="-33881.4883" y1="12600.793" x2="-34445.8086" y2="13552.4531" gradientTransform="matrix(0.253 0 0 -0.253 9406.915 4085.9392)">
	<stop  offset="0" style="stop-color:#E1282B"/>
	<stop  offset="0.388" style="stop-color:#E3402A"/>
	<stop  offset="0.702" style="stop-color:#E76226"/>
	<stop  offset="1" style="stop-color:#F19A0A"/>
</linearGradient>
<path class="st15" d="M790.7,917.3c24.8-25.7,46.1-48.5,65.4-71.5c-3.2-7.5-6.8-15.6-10.8-24.3C819.2,873.5,797.9,909,790.7,917.3z"
	/>
<linearGradient id="SVGID_7_" gradientUnits="userSpaceOnUse" x1="-33845.4258" y1="12622.1758" x2="-34409.7422" y2="13573.8359" gradientTransform="matrix(0.253 0 0 -0.253 9406.915 4085.9392)">
	<stop  offset="0" style="stop-color:#E1282B"/>
	<stop  offset="0.388" style="stop-color:#E3402A"/>
	<stop  offset="0.702" style="stop-color:#E76226"/>
	<stop  offset="1" style="stop-color:#F19A0A"/>
</linearGradient>
<path class="st16" d="M821.2,915.8c1.3-1.3,18.9-18.2,44.6-46.1c-0.9-2.2-1.7-4.5-2.7-6.9C840.1,892.5,822.5,914.1,821.2,915.8z"/>
<linearGradient id="SVGID_8_" gradientUnits="userSpaceOnUse" x1="-33941.3672" y1="12565.2832" x2="-34505.6875" y2="13516.9434" gradientTransform="matrix(0.253 0 0 -0.253 9406.915 4085.9392)">
	<stop  offset="0" style="stop-color:#E1282B"/>
	<stop  offset="0.388" style="stop-color:#E3402A"/>
	<stop  offset="0.702" style="stop-color:#E76226"/>
	<stop  offset="1" style="stop-color:#F19A0A"/>
</linearGradient>
<path class="st17" d="M674.6,655.4c29.3,137.2,69.5,263,69.5,263h31.7c0,0,20.4-63.9,42.8-150.3c-25.5-47.6-60.7-104.4-108-164.2
	C697.1,621.1,685.1,638.4,674.6,655.4z"/>
<linearGradient id="SVGID_9_" gradientUnits="userSpaceOnUse" x1="-34252.4336" y1="12380.8271" x2="-34816.7539" y2="13332.4873" gradientTransform="matrix(0.253 0 0 -0.253 9406.915 4085.9392)">
	<stop  offset="0" style="stop-color:#E1282B"/>
	<stop  offset="0.388" style="stop-color:#E3402A"/>
	<stop  offset="0.702" style="stop-color:#E76226"/>
	<stop  offset="1" style="stop-color:#F19A0A"/>
</linearGradient>
<path class="st18" d="M617.3,783.9c32,47.6,65.8,85.5,112.1,133.4c-10.8-12.3-52.5-84.8-95-182.7
	C627.4,751.7,621.8,768.3,617.3,783.9L617.3,783.9z"/>
<linearGradient id="SVGID_10_" gradientUnits="userSpaceOnUse" x1="-34356.7266" y1="12318.9775" x2="-34921.0469" y2="13270.6475" gradientTransform="matrix(0.253 0 0 -0.253 9406.915 4085.9392)">
	<stop  offset="0" style="stop-color:#E1282B"/>
	<stop  offset="0.388" style="stop-color:#E3402A"/>
	<stop  offset="0.702" style="stop-color:#E76226"/>
	<stop  offset="1" style="stop-color:#F19A0A"/>
</linearGradient>
<path class="st19" d="M608.9,817.8c48.4,57.9,88,96,90,98c-2.1-2.6-45.8-56.3-86.7-112.7C611,808.1,609.9,813,608.9,817.8
	L608.9,817.8z"/>
</svg>
