<?xml version="1.0" encoding="utf-8"?>
<!-- Generator: Adobe Illustrator 24.2.1, SVG Export Plug-In . SVG Version: 6.00 Build 0)  -->
<svg version="1.1" id="Layer_1" xmlns="http://www.w3.org/2000/svg" xmlns:xlink="http://www.w3.org/1999/xlink" x="0px" y="0px"
	 viewBox="0 0 300 300" style="enable-background:new 0 0 300 300;" xml:space="preserve">
<style type="text/css">
	.st0{fill:#1572B6;}
	.st1{fill:#33A9DC;}
	.st2{fill:#FFFFFF;}
	.st3{fill:#EBEBEB;}
</style>
<g>
	<path class="st0" d="M41.8,270L17.7,0h264.5l-24.1,270l-108.3,30L41.8,270z"/>
	<path class="st1" d="M150,277.1l87.5-24.3l20.6-230.7H150L150,277.1z"/>
	<path class="st2" d="M150,119.9h43.8l3-33.9H150V52.9h83.1l-0.8,8.9l-8.1,91.3H150L150,119.9z"/>
	<path class="st3" d="M150.2,205.9H150l-36.9-10l-2.4-26.4H77.6l4.6,52l67.8,18.9h0.2L150.2,205.9L150.2,205.9z"/>
	<path class="st2" d="M191,151.6l-4,44.3l-36.9,10v34.5l67.9-18.8l0.5-5.6l5.8-64.4L191,151.6L191,151.6z"/>
	<path class="st3" d="M150.1,52.9V86h-80l-0.7-7.4l-1.5-16.8l-0.8-8.9L150.1,52.9z M150,119.9V153h-36.5l-0.6-7.4l-1.5-16.8
		l-0.8-8.9L150,119.9L150,119.9z"/>
</g>
</svg>
