<?xml version="1.0" encoding="utf-8"?>
<!-- Generator: Adobe Illustrator 24.2.1, SVG Export Plug-In . SVG Version: 6.00 Build 0)  -->
<svg version="1.1" id="Layer_1" xmlns="http://www.w3.org/2000/svg" xmlns:xlink="http://www.w3.org/1999/xlink" x="0px" y="0px"
	 viewBox="0 0 300 300" style="enable-background:new 0 0 300 300;" xml:space="preserve">
<style type="text/css">
	.st0{fill:#E44D26;}
	.st1{fill:#F16529;}
	.st2{fill:#EBEBEB;}
	.st3{fill:#FFFFFF;}
</style>
<g>
	<path class="st0" d="M282.3,0l-24.1,270l-108.3,30l-108-30L17.7,0H282.3L282.3,0z"/>
	<path class="st1" d="M150,277l87.5-24.3l20.6-230.7H150V277z"/>
	<path class="st2" d="M103.2,88.3H150V55.2H67l0.8,8.9l8.1,91.3H150v-33.1h-43.8L103.2,88.3z M110.6,171.9H77.4l4.6,52l67.8,18.8
		l0.2,0v-34.5l-0.1,0l-36.9-10L110.6,171.9L110.6,171.9z"/>
	<path class="st3" d="M149.9,155.3h40.8l-3.8,42.9l-36.9,10v34.5l67.9-18.8l0.5-5.6l7.8-87.2l0.8-8.9h-77V155.3L149.9,155.3z
		 M149.9,88.2L149.9,88.2l80,0.1l0.7-7.4l1.5-16.8l0.8-8.9h-83V88.2L149.9,88.2z"/>
</g>
</svg>
