<?xml version="1.0" encoding="utf-8"?>
<!-- Generator: Adobe Illustrator 24.2.1, SVG Export Plug-In . SVG Version: 6.00 Build 0)  -->
<svg version="1.1" id="Layer_1" xmlns="http://www.w3.org/2000/svg" xmlns:xlink="http://www.w3.org/1999/xlink" x="0px" y="0px"
	 viewBox="0 0 300 300" style="enable-background:new 0 0 300 300;" xml:space="preserve">
<style type="text/css">
	.st0{fill:#E6A329;}
	.st1{fill:#F1BF22;}
	.st2{fill:#FFFFFF;}
	.st3{fill:#EBEBEB;}
</style>
<g>
	<path class="st0" d="M282.5,0H17.5l24.8,269.5L150,300l107.7-30.5L282.5,0z"/>
	<path class="st1" d="M150,22v255.2l87.2-24.7L258.4,22L150,22z"/>
	<path class="st2" d="M219.4,55H85.3l-9.3,100.9l0.2-0.6h113.9l-3.7,42.7L150,208.4l-36.9-10.6l-2.2-25.8H77.4l4.8,51.6l67.8,19.3
		l67.8-19.3l9.3-101.3H106.2l1.6-33.8h83.9l1.3,19.3h33.8L219.4,55z"/>
	<path class="st3" d="M150,55H85.3l-9.3,100.9l0.2-0.6H150v-32.9H111l1.6-33.8H150V55z M111,172H77.4l4.8,51.6l67.8,19.2v-34.3
		l-36.9-10.7L111,172z"/>
</g>
</svg>
