<?xml version="1.0" encoding="utf-8"?>
<!-- Generator: Adobe Illustrator 24.2.1, SVG Export Plug-In . SVG Version: 6.00 Build 0)  -->
<svg version="1.1" id="Layer_1" xmlns="http://www.w3.org/2000/svg" xmlns:xlink="http://www.w3.org/1999/xlink" x="0px" y="0px"
	 viewBox="0 0 300 300" style="enable-background:new 0 0 300 300;" xml:space="preserve">
<style type="text/css">
	.st0{fill:#131B28;}
	.st1{fill:#0868AC;}
</style>
<g>
	<path class="st0" d="M98.5,236.8L98.5,236.8l-1.9,6.8L98.5,236.8z M108.4,251.6l-2.1,0L108.4,251.6z M107.8,261.8L107.8,261.8
		l-12.7,0L107.8,261.8z M110.5,251.6l-2.1,0L110.5,251.6z M108.9,260.9l2.2-8.4L108.9,260.9L108.9,260.9z M155.6,222.1l-4.1,19.3
		C151.5,241.4,155.6,222.1,155.6,222.1z M145,222.1l-3.1,14.5L145,222.1L145,222.1z"/>
	<path class="st0" d="M154.9,221.2h-8.8c-0.5,0-1,0.4-1.1,0.9l-3.1,14.5l-3.1,14.5c-0.1,0.5-0.6,0.9-1.1,0.9h-6.2
		c-6.2,0-5.4-4.3-4.2-10.1l0-0.2l0.1-0.7l0-0.1l0.3-1.5l0.3-1.6c0.1-0.5,0.2-1.2,0.3-1.6l1.4-6.9l1.4-6.9c0.1-0.5-0.2-0.9-0.7-0.9
		h-9c-0.5,0-1,0.4-1.1,0.9l-1.9,9.2l-1.9,9.2c0,0,0,0,0,0l-0.2,0.9c-2.2,10.2-1.6,19.9,10.5,20.3c0.2,0,0.4,0,0.4,0h19.1
		c0.5,0,1-0.4,1.1-0.9l4.1-19.3l4.1-19.3C155.7,221.6,155.4,221.2,154.9,221.2L154.9,221.2z M190,252c0.5,0,0.8,0.4,0.7,0.9
		l-0.9,4.2 M189,261.2l0.9-4.2L189,261.2L189,261.2z M187.9,262.1L187.9,262.1c-2.6,0-10.4,0.1-16.2,0.1
		C178.8,262.1,187.9,262.1,187.9,262.1z M166.5,246.6c0-0.5,0.5-1.2,1-1.2l-1.1,0C165.9,250.3,166.5,246.6,166.5,246.6z"/>
	<path class="st0" d="M172.5,262.1c-0.1,0-0.1,0-0.2,0C172.4,262.1,172.5,262.1,172.5,262.1z M190,252c0.5,0,0.8,0.4,0.7,0.9
		l-0.9,4.2l-0.1,0.7 M176.7,262.1L176.7,262.1L176.7,262.1z M174.5,262.1h-0.1H174.5z M173.9,262.1c-0.1,0-0.1,0-0.2,0
		C173.7,262.1,173.8,262.1,173.9,262.1z M173.2,262.1H173H173.2z M174.4,262.1l-0.5,0L174.4,262.1z M176.7,262.1c-0.7,0-1.4,0-2.1,0
		C175.2,262.1,176,262.1,176.7,262.1z M189,261.2l0.7-3.5L189,261.2L189,261.2z M173.7,262.1h-0.5H173.7z M172.4,262.1h-0.6H172.4z
		 M173,262.1h-0.5H173z M44.3,246.7l1.4-6.1l-1.6,6.9l-1.5,7.1l1.3-6.2C44,248,44.2,247.2,44.3,246.7L44.3,246.7z M60.7,221.1H51
		c-0.5,0-1,0.4-1.1,0.9l-0.9,4l-0.9,4c-0.1,0.5,0.2,0.9,0.7,0.9h9.7c0.5,0,1-0.4,1.1-0.9l0.9-4l0.9-4v0
		C61.5,221.5,61.2,221.1,60.7,221.1L60.7,221.1z M58.6,234.6L58.6,234.6l-2.8,13.1L58.6,234.6L58.6,234.6z M30.5,278
		c0,0,4.9,0.1,8,0.1C36.1,278.1,32.2,278,30.5,278L30.5,278z M47.1,234.6l-1.4,6.1L47.1,234.6z"/>
	<path class="st0" d="M57.9,233.7h-9.7c-0.5,0-1,0.4-1.1,0.9l-1.4,6.1l-1.4,6.1c-0.1,0.5-0.3,1.3-0.4,1.7l-1.3,6.2l-1.3,6.2
		c-0.1,0.6-0.3,1.1-0.5,1.7c0,0-1.8,5.4-4.9,5.4c-0.1,0-0.3,0-0.4,0c-1.5,0-2.6,0-2.6,0h0c-0.5,0-1,0.4-1.1,0.8l-1,4.2l-1,4.2
		c-0.1,0.5,0.2,0.9,0.7,0.9c1.7,0,5.6,0.1,8,0.1c7.6,0,11.7-4.2,14.2-16.4l3-14l2.8-13.1C58.7,234.1,58.4,233.7,57.9,233.7
		L57.9,233.7z M196.2,261.7c-0.5,0-0.8-0.4-0.7-0.9l7.3-34.3 M206.4,260.8l3-14.6L206.4,260.8z"/>
	<path class="st0" d="M195.6,261.2c-0.1-0.2,0-0.8,0.1-1.3l3.5-16.3l-3.7,17.2c-0.1,0.5,0.2,0.9,0.7,0.9h0.9
		C196.6,261.7,195.7,261.5,195.6,261.2L195.6,261.2z M205.8,261.5c-0.3,0.1-0.9,0.2-1.4,0.2h0.9c0.5,0,1-0.4,1.1-0.9l0.2-0.9
		C206.5,260.4,206.1,261.3,205.8,261.5L205.8,261.5z M207.9,253.5l1.3-6.5c0,0,0,0,0,0L207.9,253.5z M236.8,228.8l0.4,1.7
		c0.1,0.5-0.2,0.9-0.7,0.9 M206.6,259.9l1.3-6.5L206.6,259.9z M236.4,227.1l0.4,1.7L236.4,227.1z M209.2,247
		c0.1-0.5,0.3-1.3,0.4-1.7l1.4-6.5l-1.6,7.4L209.2,247L209.2,247z M203,225.9c-0.1,0.5-0.2,1-0.3,1.4l-3.5,16.3l3.7-17.2L203,225.9z
		"/>
	<path class="st0" d="M237.2,230.4l-0.4-1.7l-0.4-1.7l-0.2-0.9c-0.8-3.1-3.1-4.8-8.2-4.8l-7.8,0l-7.2,0h-8.1c-0.5,0-1,0.4-1.1,0.9h0
		l-0.4,1.7l-0.4,2l-0.1,0.6l-3.7,17.2l-3.5,16.3c-0.1,0.5-0.1,1.1-0.1,1.3c0.1,0.2,1,0.4,1.5,0.4h7.3c0.5,0,1.1-0.1,1.4-0.2
		c0.3-0.1,0.7-1.1,0.8-1.5l1.3-6.5l1.3-6.5l0,0l0.2-0.9l1.6-7.4l1.4-6.5c0.1-0.5,0.6-0.9,1.1-0.9l23.1,0
		C237,231.3,237.3,230.9,237.2,230.4L237.2,230.4z"/>
	<path class="st0" d="M266.9,215.4c-0.5,0-1.3,0-1.8,0h-7.4c-0.5,0-1.1,0.3-1.4,0.7L240,240c-0.3,0.4-0.6,0.3-0.7-0.1l-1.2-5.3
		c-0.1-0.5-0.6-0.9-1.1-0.9h-10.5c-0.5,0-0.8,0.4-0.6,0.9l4.7,16.5c0.1,0.5,0.1,1.2,0,1.7l-2.1,8c-0.1,0.5,0.2,0.9,0.7,0.9h10.4
		c0.5,0,1-0.4,1.1-0.9l2.1-8c0.1-0.5,0.5-1.2,0.8-1.6l26.5-35.2c0.3-0.4,0.1-0.7-0.4-0.7L266.9,215.4L266.9,215.4z M183.4,236
		L183.4,236c-0.1,0.5-0.6,0.9-1,0.9h-13.3c-0.5,0-0.7-0.3-0.6-0.7c0,0,0,0,0,0c0,0,0,0,0,0c0,0,0,0,0,0l0.1-0.2
		c1.3-3.4,3.9-5.6,8.7-5.6C182.7,230.3,183.8,233,183.4,236L183.4,236z M179.5,220.6c-17.1,0-21.1,10.4-23.4,20.9
		c-2.3,10.7-2.1,20.7,15.6,20.7h0.6c0.1,0,0.1,0,0.2,0h1.1c0.1,0,0.1,0,0.2,0l0.5,0h0.1c0.7,0,1.4,0,2.1,0h0c4.7,0,9.4-0.1,11.3-0.1
		c0.5,0,1-0.4,1.1-0.9l0.7-3.5l0.1-0.7l0.9-4.2c0.1-0.5-0.2-0.9-0.7-0.9h-15.9c-6.3,0-8.2-1.7-7.5-6.6H192l0,0c0,0,0,0,0,0
		c0.4,0,0.8-0.3,0.9-0.7c0-0.1,0.1-0.1,0.1-0.2l0,0C196.8,230.2,195.7,220.6,179.5,220.6L179.5,220.6L179.5,220.6z M98.7,236
		l-0.2,0.9l0,0l-1.9,6.8l-1.9,6.8c-0.1,0.5-0.6,0.9-1.1,0.9H83.4c-7.7,0-9.6-6-7.7-14.9c1.9-9.1,5.6-14.7,13.1-15.3
		C99.2,220.3,101.2,227.5,98.7,236L98.7,236z M105.7,250.8c0,0,4.8-11.6,5.9-18.4c1.5-9-3-22-20.4-22c-17.3,0-24.8,12.5-27.7,26
		c-2.9,13.6,0.9,25.6,18.1,25.5l13.6-0.1l12.7,0c0.5,0,1-0.4,1.1-0.9l2.2-8.4c0.1-0.5-0.2-0.9-0.7-0.9l-2.1,0l-2.1,0
		c-0.4,0-0.7-0.3-0.6-0.6C105.7,250.9,105.7,250.8,105.7,250.8L105.7,250.8L105.7,250.8z"/>
	<path class="st0" d="M191.3,243c0,0.3-0.3,0.6-0.6,0.6c-0.3,0-0.6-0.3-0.6-0.6c0-0.3,0.3-0.6,0.6-0.6
		C191.1,242.4,191.3,242.6,191.3,243z"/>
	<path class="st1" d="M111.8,276.1l-2.8,6.5h-3.1l0.3-5.9l-2.3,5.9h-3l-0.1-6.5l0.3-1.6h2.1l-0.4,6.4l2.4-6.4h3l-0.2,6.5l2.4-6.5
		h1.9L111.8,276.1z M116.8,278c0.3-1.3,0.2-1.5-0.5-1.5h-1l-0.6,3l-1,3.1h-1.8l1.5-7l0.2-1h1.7l0.2,0.5c0,0,1-0.6,1.9-0.6
		c2,0,1.9,1.5,1.4,3.6L116.8,278z M122.7,273.5c-0.8,0-1.3-0.2-1.1-1.2c0.2-1,0.8-1.2,1.6-1.2c0.8,0,1.3,0.2,1.1,1.2
		C124.1,273.2,123.5,273.5,122.7,273.5L122.7,273.5z M121.8,282.6H120l0.4-3.2l0.6-2.9l-1.3-0.3l0.4-1.7h3.4L121.8,282.6
		L121.8,282.6z M129.7,276.2l-2.3,0.3l-0.7,3.1c-0.2,0.8-0.2,1.1,0.6,1.1h1.5l-0.3,1.6c0,0-1.4,0.4-2,0.4c-2.3,0-2.3-1.3-1.9-3.2
		l0.6-3l-1.3-0.3l0.4-1.7h1.3l0.7-2h1.8l-0.4,2h2.2L129.7,276.2L129.7,276.2z M134.4,276.3c-1.1,0-1.6,0.6-1.8,1.5l3-0.3
		C135.8,276.9,135.6,276.3,134.4,276.3z M132.3,279.3c-0.1,1,0.2,1.3,1.5,1.3h3.2l-0.3,1.5c0,0-1.9,0.5-3.3,0.5
		c-3.5,0-3.6-2-3.1-4.1c0.5-2.1,1.3-4.2,4.7-4.2c3.3,0,3.4,2,2.6,4.9H132.3L132.3,279.3z M144.7,282.6h-1.8l0.4-3.2l1.3-6l-1.3-0.3
		l0.4-1.7h3.4L144.7,282.6L144.7,282.6z M151.3,276.3c-1.1,0-1.6,0.6-1.8,1.5l3-0.3C152.6,276.9,152.5,276.3,151.3,276.3z
		 M149.2,279.3c-0.1,1,0.2,1.3,1.5,1.3h3.2l-0.3,1.5c0,0-1.9,0.5-3.3,0.5c-3.5,0-3.6-2-3.1-4.1c0.5-2.1,1.3-4.2,4.7-4.2
		c3.3,0,3.4,2,2.6,4.9H149.2L149.2,279.3z M162.7,276.4c0,0-2.3,0-2.9,0c-1.3,0-1.5,0.4-1.6,0.8l-0.1,0.4l4.3,0.3c0,0,0,1.4-0.2,2.1
		c-0.3,1.3-1.6,2.6-4,2.6c-1.2,0-3.1-0.5-3.1-0.5l0.3-1.6h2.9c1.3,0,1.5-0.4,1.6-0.7l0.1-0.5l-4.2-0.3c0,0-0.2-1,0.1-2.1
		c0.3-1.4,1.6-2.6,4-2.6c1.2,0,3.1,0.4,3.1,0.4L162.7,276.4L162.7,276.4z M170.6,276.4c0,0-2.3,0-2.9,0c-1.3,0-1.5,0.4-1.6,0.8
		l-0.1,0.4l4.3,0.3c0,0,0,1.4-0.2,2.1c-0.3,1.3-1.6,2.6-4,2.6c-1.2,0-3.1-0.5-3.1-0.5l0.3-1.6h2.9c1.3,0,1.5-0.4,1.6-0.7l0.1-0.5
		l-4.2-0.3c0,0-0.2-1,0.1-2.1c0.3-1.4,1.6-2.6,4-2.6c1.2,0,3.1,0.4,3.1,0.4L170.6,276.4L170.6,276.4z M173.1,283.8h-1.6l0.1-1.2
		c-0.6,0-0.9-0.5-0.7-1.1c0.2-1,0.8-1.2,1.6-1.2c0.8,0,1.3,0.2,1.1,1.2L173.1,283.8z M183.6,276.5c-1.2,0-1.6,0.7-1.9,2
		c-0.3,1.3-0.2,2.1,1,2.1h1.6l0.9-4.1H183.6z M186.3,281.5l-0.2,1l-1.7,0l-0.2-0.5c0,0-1.5,0.6-2.4,0.6c-2.5,0-2.6-2.1-2.2-4.2
		c0.5-2.1,1.4-4.1,3.9-4.1c0.9,0,2.1,0.5,2.1,0.5l1-3.4h1.8L186.3,281.5L186.3,281.5z M192.9,276.4c-1.5,0-2,0.9-2.3,2.1
		c-0.3,1.3-0.1,2.1,1.4,2.1c1.6,0,2.1-0.8,2.3-2.1C194.5,277.3,194.5,276.4,192.9,276.4L192.9,276.4z M191.5,282.7
		c-3.3,0-3.5-2-3.1-4.1c0.5-2.1,1.6-4.1,4.8-4.1c3.2,0,3.5,2,3.1,4.1C195.9,280.7,194.8,282.7,191.5,282.7L191.5,282.7z M210,282.6
		l0.4-3.1l0.2-0.9c0.3-1.2,0.4-2-0.8-2h-1c0,0.6-0.1,1.3-0.2,2l-0.8,4h-1.8l0.4-3.1l0.2-0.9c0.3-1.2,0.4-2-0.8-2h-0.8l-1.3,6h-2.1
		l1.7-8.1h1.7l0.3,0.5c0,0,1.1-0.6,2-0.6c0.7,0,1.2,0.3,1.4,0.7c0.4-0.2,1.5-0.7,2.3-0.7c2.5,0,2.4,2,2,4.1l-0.8,4L210,282.6
		L210,282.6L210,282.6z M218.4,276.4c-1.5,0-2,0.9-2.3,2.1c-0.3,1.3-0.1,2.1,1.4,2.1c1.6,0,2.1-0.8,2.3-2.1
		C220,277.3,220,276.4,218.4,276.4L218.4,276.4z M217,282.7c-3.3,0-3.5-2-3.1-4.1c0.5-2.1,1.6-4.1,4.8-4.1c3.2,0,3.5,2,3.1,4.1
		C221.4,280.7,220.3,282.7,217,282.7z M227.3,278c0.3-1.3,0.2-1.5-0.5-1.5h-1l-0.6,3l-1,3.1h-1.8l1.5-7l0.2-1h1.7l0.2,0.5
		c0,0,1-0.6,1.9-0.6c2,0,1.9,1.5,1.4,3.6L227.3,278L227.3,278z M234.4,276.3c-1.1,0-1.6,0.6-1.8,1.5l3-0.3
		C235.7,276.9,235.6,276.3,234.4,276.3L234.4,276.3z M232.3,279.3c-0.1,1,0.2,1.3,1.5,1.3h3.2l-0.3,1.5c0,0-1.9,0.5-3.3,0.5
		c-3.5,0-3.6-2-3.1-4.1c0.5-2.1,1.3-4.2,4.7-4.2c3.3,0,3.4,2,2.6,4.9H232.3L232.3,279.3z M239.3,282.7c-0.8,0-1.3-0.2-1.1-1.2
		c0.2-1,0.8-1.2,1.6-1.2c0.8,0,1.3,0.2,1.1,1.2C240.7,282.4,240,282.7,239.3,282.7z"/>
</g>
<g>
	<path class="st1" d="M57.1,49.3c-18.8,27.1-16.5,62.3-2.1,91.1c0.3,0.7,0.7,1.4,1.1,2c0.2,0.4,0.4,0.9,0.7,1.3
		c0.1,0.3,0.3,0.5,0.4,0.7c0.2,0.5,0.5,0.9,0.8,1.3c0.4,0.8,0.9,1.6,1.4,2.4c0.3,0.4,0.5,0.9,0.8,1.3c0.5,0.8,1.1,1.7,1.6,2.5
		c0.2,0.4,0.4,0.7,0.7,1c0.8,1.1,1.5,2.2,2.3,3.3l0.1,0.1c0.1,0.2,0.3,0.3,0.4,0.5c0.7,0.9,1.4,1.9,2.1,2.8c0.3,0.3,0.5,0.7,0.8,1
		c0.9,1.1,1.8,2.2,2.7,3.3c0.9,1.1,1.8,2.1,2.8,3.2c0,0,0.1,0.1,0.1,0.1c1.9,2,3.8,4,5.8,6c0.3,0.3,0.6,0.6,0.9,0.9
		c1,0.9,2,1.9,3.1,2.8c0.2,0.2,0.4,0.3,0.5,0.4c0.9,0.8,1.8,1.6,2.7,2.3c0.4,0.3,0.8,0.6,1.1,0.9c0.8,0.6,1.5,1.2,2.3,1.8l1.2,0.9
		c0.8,0.6,1.7,1.2,2.6,1.8c0.3,0.2,0.6,0.4,0.9,0.7c0.1,0.1,0.2,0.1,0.3,0.2c0.8,0.6,1.7,1.1,2.5,1.6c0.4,0.2,0.7,0.5,1.1,0.7
		c1.3,0.8,2.6,1.6,3.9,2.4c0.4,0.2,0.7,0.4,1.1,0.6c1,0.6,1.9,1.1,2.9,1.6c0.5,0.3,1.1,0.6,1.6,0.8c0.7,0.4,1.4,0.7,2.1,1.1
		c0.2,0.1,0.3,0.2,0.5,0.2c0.3,0.1,0.6,0.3,0.9,0.4c1.3,0.6,2.7,1.3,4,1.9c1.3,0.6,2.6,1.1,3.9,1.6c0.3,0.1,0.6,0.2,0.9,0.4
		c1.4,0.5,2.7,1,4.1,1.5c1.3,0.5,2.7,0.9,4.1,1.3c0.3,0.1,0.7,0.2,1,0.3c1.4,0.4,2.8,0.9,4.2,1.2c91.1,16.6,117.6-54.8,117.6-54.8
		c-22.2,29-61.7,36.6-99.1,28.1c-1.4-0.3-2.8-0.8-4.2-1.2c-1.7-0.5-3.4-1-5.1-1.6l-0.6-0.2c-1.2-0.4-2.4-0.9-3.5-1.3
		c-0.3-0.1-0.7-0.3-1-0.4c-1.3-0.5-2.6-1-3.8-1.6c-0.3-0.1-0.5-0.2-0.8-0.3c-1.4-0.6-2.8-1.3-4.2-1.9c-0.8-0.4-1.7-0.8-2.5-1.3
		c-0.6-0.3-1.1-0.6-1.7-0.9c-1-0.5-2-1.1-3-1.7c-0.3-0.2-0.7-0.4-1-0.6c-1.3-0.8-2.6-1.6-3.9-2.4c-0.4-0.2-0.7-0.5-1.1-0.7
		c-0.9-0.6-1.9-1.2-2.8-1.8c-0.3-0.2-0.6-0.4-0.9-0.6c-0.9-0.6-1.8-1.3-2.6-1.9c-0.4-0.3-0.8-0.6-1.2-0.9c-1.2-0.9-2.3-1.8-3.4-2.7
		c-1-0.8-2-1.6-2.9-2.5l-0.3-0.3c-1-0.9-2.1-1.9-3.1-2.8c-0.3-0.3-0.6-0.6-0.9-0.8c-0.8-0.7-1.5-1.4-2.2-2.2
		c-0.3-0.3-0.6-0.6-0.9-0.9c-0.9-0.9-1.8-1.9-2.7-2.9l-0.1-0.1c-0.9-1-1.9-2.1-2.8-3.2c-0.2-0.3-0.5-0.6-0.7-0.9
		c-0.7-0.8-1.3-1.6-2-2.5c-0.2-0.3-0.5-0.6-0.7-0.9c-0.8-1-1.6-2-2.3-3.1c-20.8-28.3-28.2-67.4-11.6-99.5"/>
	<path class="st1" d="M115.6,26.5c-13.6,19.6-12.9,45.9-2.3,66.6c1.8,3.5,3.8,6.8,6,10.1c2,2.9,4.3,6.4,7,8.8c1,1.1,2,2.1,3.1,3.2
		c0.3,0.3,0.5,0.5,0.8,0.8c1,1,2.1,2,3.1,2.9c0,0,0.1,0.1,0.1,0.1c0,0,0,0,0,0c1.2,1,2.4,2,3.6,3c0.3,0.2,0.5,0.4,0.8,0.6
		c1.2,1,2.5,1.9,3.8,2.8c0,0,0.1,0.1,0.1,0.1c0.6,0.4,1.2,0.8,1.7,1.1c0.3,0.2,0.5,0.4,0.8,0.5c0.9,0.6,1.9,1.2,2.8,1.7
		c0.1,0.1,0.3,0.2,0.4,0.2c0.8,0.5,1.7,0.9,2.5,1.4c0.3,0.2,0.6,0.3,0.9,0.5c0.6,0.3,1.2,0.6,1.7,0.9c0.1,0,0.2,0.1,0.3,0.1
		c1.2,0.6,2.4,1.2,3.6,1.7c0.3,0.1,0.5,0.2,0.8,0.3c1,0.4,2,0.8,3,1.2c0.4,0.2,0.9,0.3,1.3,0.5c0.9,0.3,1.8,0.6,2.7,1
		c0.4,0.1,0.8,0.3,1.2,0.4c1.3,0.4,2.6,0.9,4,1.1c70.4,11.7,86.6-42.5,86.6-42.5c-14.6,21.1-43,31.2-73.3,23.3
		c-1.7-0.5-3.5-1-5.2-1.5c-1.4-0.4-2.7-0.9-4-1.4c-1-0.4-2-0.8-3-1.2c-0.3-0.1-0.5-0.2-0.8-0.3c-1.2-0.5-2.5-1.1-3.7-1.7
		c-0.6-0.3-1.2-0.6-1.8-0.9l-1.1-0.5c-0.8-0.4-1.6-0.9-2.3-1.3c-0.2-0.1-0.4-0.2-0.6-0.3c-1-0.6-1.9-1.1-2.8-1.7
		c-0.3-0.2-0.6-0.4-0.9-0.6c-0.6-0.4-1.2-0.8-1.8-1.2c-1.3-0.9-2.6-1.8-3.8-2.8c-0.3-0.2-0.6-0.4-0.9-0.7
		c-13.2-10.5-23.7-24.8-28.7-41c-5.2-16.8-4.1-35.7,5-51"/>
	<path class="st1" d="M163.7,10.2c-8,11.8-8.8,26.5-3.2,39.6c5.9,13.9,17.9,24.7,32,29.9c0.6,0.2,1.2,0.4,1.7,0.6
		c0.3,0.1,0.5,0.2,0.8,0.2c0.8,0.3,1.6,0.6,2.5,0.7c38.9,7.5,49.4-19.9,52.2-24c-9.2,13.3-24.7,16.5-43.8,11.9
		c-1.6-0.4-3.1-0.9-4.6-1.4c-1.9-0.7-3.7-1.4-5.5-2.3c-3.4-1.6-6.6-3.6-9.6-5.9c-17-12.9-27.6-37.6-16.5-57.7"/>
</g>
</svg>
