<?xml version="1.0" encoding="utf-8"?>
<!-- Generator: Adobe Illustrator 24.2.1, SVG Export Plug-In . SVG Version: 6.00 Build 0)  -->
<svg version="1.1" id="Layer_1" xmlns="http://www.w3.org/2000/svg" xmlns:xlink="http://www.w3.org/1999/xlink" x="0px" y="0px"
	 viewBox="0 0 592 300" style="enable-background:new 0 0 592 300;" xml:space="preserve">
<style type="text/css">
	.st0{fill-rule:evenodd;clip-rule:evenodd;fill:#6E81B6;}
	.st1{fill-rule:evenodd;clip-rule:evenodd;fill:#FFFFFF;}
	.st2{fill-rule:evenodd;clip-rule:evenodd;}
</style>
<g>
	<path class="st0" d="M296,300c163.5,0,296-67.2,296-150S459.5,0,296,0S0,67.1,0,150S132.5,300,296,300L296,300z"/>
	<path class="st1" d="M356,198.5l14.7-75.6c3.3-17.1,0.6-29.8-8.2-37.8c-8.5-7.8-22.9-11.6-44-11.6h-25.4l7.3-37.4
		c0.5-2.6-1.2-5.1-3.8-5.6c-0.3,0-0.6-0.1-0.9-0.1h-35.1c-2.3,0-4.3,1.6-4.7,3.9l-15.6,80.2c-1.4-9-4.9-16.8-10.5-23.2
		c-10.3-11.8-26.6-17.8-48.4-17.8h-68c-2.3,0-4.3,1.6-4.7,3.9L77,239.8c-0.3,1.4,0.1,2.9,1,4c0.9,1.1,2.3,1.8,3.7,1.8h35.4
		c2.3,0,4.3-1.6,4.7-3.9l7.6-39.3h26.3c13.8,0,25.4-1.5,34.5-4.4c9.3-3,17.8-8.1,25.3-15.2c6.1-5.6,11.1-11.8,15-18.6l-6.3,32.4
		c-0.3,1.4,0.1,2.9,1,4c0.9,1.1,2.3,1.8,3.7,1.8h35.1c2.3,0,4.3-1.6,4.7-3.9l17.3-89.1h24.1c10.3,0,13.3,2,14.1,2.9
		c0.7,0.8,2.3,3.6,0.5,12.5l-13.9,71.9c-0.5,2.6,1.2,5.1,3.8,5.6c0.3,0,0.6,0.1,0.9,0.1h35.7C353.6,202.4,355.6,200.7,356,198.5
		L356,198.5z M193.3,136.1c-2.2,11.3-6.3,19.4-12.3,24c-6.1,4.7-15.8,7.1-28.9,7.1h-15.7l11.3-58.3H168c14.9,0,20.9,3.2,23.3,5.8
		C194.6,118.4,195.3,125.7,193.3,136.1z M503.8,91.3c-10.3-11.8-26.6-17.8-48.4-17.8h-68c-2.3,0-4.3,1.6-4.7,3.9l-31.6,162.4
		c-0.3,1.4,0.1,2.9,1,4c0.9,1.1,2.3,1.8,3.7,1.8h35.4c2.3,0,4.3-1.6,4.7-3.9l7.6-39.3h26.3c13.8,0,25.4-1.5,34.5-4.4
		c9.3-3,17.8-8.1,25.3-15.2c6.3-5.8,11.4-12.2,15.3-19.2c3.9-7,6.7-14.8,8.4-23.2C517.4,119.7,514.2,103.2,503.8,91.3L503.8,91.3z
		 M469.4,136.1c-2.2,11.3-6.3,19.4-12.3,24c-6.1,4.7-15.8,7.1-28.9,7.1h-15.7l11.3-58.3h20.3c14.9,0,20.9,3.2,23.3,5.8
		C470.7,118.4,471.4,125.7,469.4,136.1L469.4,136.1z"/>
	<path class="st2" d="M167.9,104c13.4,0,22.4,2.5,26.9,7.4c4.5,4.9,5.5,13.5,3.2,25.6c-2.4,12.6-7.2,21.6-14.1,26.9
		c-7,5.4-17.6,8.1-31.9,8.1h-21.5l13.2-68L167.9,104L167.9,104z M81.7,240.7h35.4l8.4-43.2h30.3c13.4,0,24.4-1.4,33-4.2
		s16.5-7.5,23.5-14.1c5.9-5.4,10.7-11.5,14.4-18s6.3-13.8,7.8-21.8c3.7-19.3,0.9-34.2-8.5-45c-9.4-10.8-24.3-16.1-44.8-16.1h-68
		L81.7,240.7z M260.5,35.2h35.1l-8.4,43.2h31.3c19.7,0,33.2,3.4,40.7,10.3c7.5,6.8,9.7,18,6.7,33.4l-14.7,75.6h-35.7l13.9-71.9
		c1.6-8.2,1-13.8-1.8-16.7c-2.8-3-8.6-4.5-17.6-4.5h-28l-18.1,93H229L260.5,35.2z M444,104c13.4,0,22.4,2.5,26.9,7.4
		c4.5,4.9,5.5,13.5,3.2,25.6c-2.4,12.6-7.2,21.6-14.1,26.9c-7,5.4-17.6,8.1-31.9,8.1h-21.5l13.2-68L444,104L444,104z M357.8,240.7
		h35.4l8.4-43.2h30.3c13.4,0,24.4-1.4,33-4.2s16.5-7.5,23.5-14.1c5.9-5.4,10.7-11.5,14.4-18c3.7-6.6,6.3-13.8,7.8-21.8
		c3.7-19.3,0.9-34.2-8.5-45c-9.4-10.8-24.3-16.1-44.8-16.1h-68L357.8,240.7L357.8,240.7z"/>
</g>
</svg>
